<svg width="37" height="38" viewBox="0 0 37 38" fill="none" xmlns="http://www.w3.org/2000/svg">
<circle cx="18.5" cy="19.5" r="17.5" fill="white" stroke="#0D457A" stroke-width="2"/>
<path d="M12.63 29.3C12.23 29.3 11.93 29.24 11.73 29.12C11.55 29.02 11.43 28.87 11.37 28.67C11.31 28.45 11.28 28.2 11.28 27.92V9.71C11.28 9.19 11.38 8.84 11.58 8.66C11.8 8.46 12.18 8.36 12.72 8.36H24.78C25.06 8.36 25.3 8.39 25.5 8.45C25.7 8.51 25.85 8.64 25.95 8.84C26.05 9.04 26.1 9.34 26.1 9.74C26.1 10.14 26.04 10.44 25.92 10.64C25.82 10.82 25.67 10.94 25.47 11C25.27 11.06 25.03 11.09 24.75 11.09H13.98V17.3H21.48C21.76 17.3 21.99 17.33 22.17 17.39C22.37 17.45 22.52 17.57 22.62 17.75C22.72 17.93 22.77 18.21 22.77 18.59C22.77 18.95 22.72 19.22 22.62 19.4C22.52 19.58 22.37 19.7 22.17 19.76C21.97 19.8 21.72 19.82 21.42 19.82H13.98V26.6H24.78C25.06 26.6 25.3 26.63 25.5 26.69C25.7 26.75 25.85 26.88 25.95 27.08C26.05 27.26 26.1 27.55 26.1 27.95C26.1 28.35 26.04 28.65 25.92 28.85C25.82 29.03 25.67 29.15 25.47 29.21C25.27 29.27 25.03 29.3 24.75 29.3H12.63Z" fill="#0D457A"/>
</svg>
