<svg width="40" height="40" viewBox="0 0 40 40" fill="none" xmlns="http://www.w3.org/2000/svg">
<rect width="40" height="40" fill="white"/>
<circle cx="19.5" cy="20.5" r="16.5" fill="white" stroke="#0D457A" stroke-width="2"/>
<path d="M13.63 30.3C13.23 30.3 12.93 30.24 12.73 30.12C12.55 30.02 12.43 29.87 12.37 29.67C12.31 29.45 12.28 29.2 12.28 28.92V10.71C12.28 10.19 12.38 9.84 12.58 9.66C12.8 9.46 13.18 9.36 13.72 9.36H25.78C26.06 9.36 26.3 9.39 26.5 9.45C26.7 9.51 26.85 9.64 26.95 9.84C27.05 10.04 27.1 10.34 27.1 10.74C27.1 11.14 27.04 11.44 26.92 11.64C26.82 11.82 26.67 11.94 26.47 12C26.27 12.06 26.03 12.09 25.75 12.09H14.98V18.3H22.48C22.76 18.3 22.99 18.33 23.17 18.39C23.37 18.45 23.52 18.57 23.62 18.75C23.72 18.93 23.77 19.21 23.77 19.59C23.77 19.95 23.72 20.22 23.62 20.4C23.52 20.58 23.37 20.7 23.17 20.76C22.97 20.8 22.72 20.82 22.42 20.82H14.98V27.6H25.78C26.06 27.6 26.3 27.63 26.5 27.69C26.7 27.75 26.85 27.88 26.95 28.08C27.05 28.26 27.1 28.55 27.1 28.95C27.1 29.35 27.04 29.65 26.92 29.85C26.82 30.03 26.67 30.15 26.47 30.21C26.27 30.27 26.03 30.3 25.75 30.3H13.63Z" fill="#0D457A"/>
</svg>
